<?xml version="1.0" encoding="utf-8"?>
<svg xmlns="http://www.w3.org/2000/svg" viewBox="0 0 50 50" fill="#ffffff"><path d="M 6.992188 5.992188 C 6.582031 5.992188 6.21875 6.238281 6.0625 6.613281 C 5.910156 6.992188 6 7.421875 6.292969 7.707031 L 40.585938 42 L 27 42 C 26.640625 41.996094 26.304688 42.183594 26.121094 42.496094 C 25.941406 42.808594 25.941406 43.191406 26.121094 43.503906 C 26.304688 43.816406 26.640625 44.003906 27 44 L 42.847656 44 C 42.957031 44.019531 43.070313 44.019531 43.179688 44 L 44 44 L 44 43.175781 C 44.019531 43.066406 44.019531 42.957031 44 42.847656 L 44 27 C 44.003906 26.730469 43.898438 26.46875 43.707031 26.277344 C 43.515625 26.085938 43.253906 25.980469 42.984375 25.984375 C 42.433594 25.996094 41.992188 26.449219 42 27 L 42 40.585938 L 7.707031 6.292969 C 7.519531 6.097656 7.261719 5.992188 6.992188 5.992188 Z" fill="#ffffff"/></svg>
