<?xml version="1.0" encoding="utf-8"?>
<svg xmlns="http://www.w3.org/2000/svg" viewBox="0 0 50 50" fill="#ffffff"><path d="M 42.980469 5.992188 C 42.941406 5.992188 42.90625 5.996094 42.871094 6 L 27 6 C 26.640625 5.996094 26.304688 6.183594 26.121094 6.496094 C 25.941406 6.808594 25.941406 7.191406 26.121094 7.503906 C 26.304688 7.816406 26.640625 8.003906 27 8 L 40.585938 8 L 6.292969 42.292969 C 6.03125 42.542969 5.925781 42.917969 6.019531 43.265625 C 6.109375 43.617188 6.382813 43.890625 6.734375 43.980469 C 7.082031 44.074219 7.457031 43.96875 7.707031 43.707031 L 42 9.414063 L 42 23 C 41.996094 23.359375 42.183594 23.695313 42.496094 23.878906 C 42.808594 24.058594 43.191406 24.058594 43.503906 23.878906 C 43.816406 23.695313 44.003906 23.359375 44 23 L 44 7.125 C 44.011719 7.035156 44.011719 6.941406 44 6.851563 L 44 6 L 43.144531 6 C 43.089844 5.992188 43.035156 5.988281 42.980469 5.992188 Z" fill="#ffffff"/></svg>
