<?xml version="1.0" encoding="utf-8"?>
<svg xmlns="http://www.w3.org/2000/svg" viewBox="0 0 50 50" fill="#ffffff"><path d="M 42.980469 5.992188 C 42.71875 5.996094 42.472656 6.105469 42.292969 6.292969 L 8 40.585938 L 8 27 C 8.003906 26.730469 7.898438 26.46875 7.707031 26.277344 C 7.515625 26.085938 7.253906 25.980469 6.984375 25.984375 C 6.433594 25.996094 5.992188 26.449219 6 27 L 6 42.847656 C 5.980469 42.957031 5.980469 43.070313 6 43.179688 L 6 44 L 6.824219 44 C 6.933594 44.019531 7.042969 44.019531 7.152344 44 L 23 44 C 23.359375 44.003906 23.695313 43.816406 23.878906 43.503906 C 24.058594 43.191406 24.058594 42.808594 23.878906 42.496094 C 23.695313 42.183594 23.359375 41.996094 23 42 L 9.414063 42 L 43.707031 7.707031 C 44.003906 7.417969 44.089844 6.980469 43.929688 6.601563 C 43.769531 6.21875 43.394531 5.976563 42.980469 5.992188 Z" fill="#ffffff"/></svg>
